<?xml version="1.0" encoding="UTF-8"?>
<svg id="Layer_1" xmlns="http://www.w3.org/2000/svg" version="1.1" viewBox="0 0 224 50">
  <!-- Generator: Adobe Illustrator 29.8.1, SVG Export Plug-In . SVG Version: 2.1.1 Build 2)  -->
  <defs>
    <style>
      .st0 {
        fill-rule: evenodd;
      }

      .st0, .st1 {
        fill: #fff;
      }
    </style>
  </defs>
  <path class="st0" d="M101.76,11.21h-4.19c-.17.42-.32.8-.45,1.12-.12.32-.22.61-.3.86-.07.22-.12.42-.15.6-.05.17-.07.31-.07.41,0,.3.1.5.3.6.17.1.49.15.93.15v.6h-3.77v-.6c.22-.02.42-.06.6-.11.17-.05.32-.12.45-.22.12-.1.24-.22.34-.37.1-.15.2-.32.3-.52l4.07-10.16h.67l3.51,8.78c.25.6.46,1.07.64,1.42.17.35.35.61.52.78.15.17.32.29.52.34.2.05.44.07.71.07v.6h-5.08v-.6c.55,0,.92-.05,1.12-.15.2-.1.3-.27.3-.52v-.3c0-.07-.01-.16-.04-.26-.05-.12-.09-.25-.11-.37-.05-.12-.11-.27-.19-.45l-.64-1.68ZM97.91,10.43h3.55l-1.72-4.6-1.83,4.6Z"/>
  <path class="st1" d="M115.13,12.78l4.07-9.23h3.48v.6c-.32,0-.59.04-.78.11-.22.07-.39.2-.49.37-.1.17-.17.41-.22.71-.03.3-.04.69-.04,1.16v6.09c0,.52.01.93.04,1.23.05.3.14.54.26.71.12.17.3.29.52.34.22.05.51.07.86.07v.6h-5.04v-.6c.37,0,.67-.02.9-.07.22-.07.4-.19.52-.34.12-.15.2-.37.22-.67.05-.27.07-.66.07-1.16v-7.21h-.15l-4.56,10.2h-.34l-4.48-10.2h-.07v7.1c0,.52.03.93.07,1.23.05.3.12.54.22.71.12.17.3.29.52.34.22.05.52.07.9.07v.6h-4.37v-.6c.37,0,.67-.02.9-.07.22-.07.4-.19.52-.34.12-.15.21-.37.26-.67.03-.27.04-.66.04-1.16v-6.32c0-.45-.01-.81-.04-1.08-.05-.3-.12-.52-.22-.67-.1-.17-.26-.3-.49-.37-.2-.05-.46-.09-.79-.11v-.6h3.7l3.92,9.23h.08Z"/>
  <path class="st1" d="M127.99,8.97c.57,0,1.05-.04,1.42-.11.37-.07.67-.19.9-.34.22-.12.39-.31.49-.56.1-.22.15-.49.15-.78h.56v4.26h-.56c0-.32-.04-.6-.11-.82-.1-.22-.26-.41-.49-.56-.22-.15-.52-.26-.9-.34-.37-.1-.86-.15-1.46-.15v3.55c0,.35.05.62.15.82.07.22.21.41.41.56.2.15.47.25.82.3.32.05.74.07,1.23.07.55,0,1.01-.04,1.38-.11.37-.07.7-.2.97-.37.25-.2.46-.45.63-.75.15-.32.27-.71.37-1.16h.6l-.22,3.06h-9.68v-.6c.35,0,.63-.02.86-.07.22-.05.4-.14.52-.26.12-.12.21-.3.26-.52.03-.25.04-.55.04-.9v-7.29c0-.35-.01-.64-.04-.86-.03-.22-.1-.4-.22-.52-.1-.15-.26-.24-.49-.26-.2-.05-.46-.09-.78-.11v-.6h9.01l.15,2.73h-.56c-.05-.4-.15-.73-.3-1.01-.15-.27-.35-.49-.6-.64-.23-.15-.52-.26-.9-.34-.37-.05-.83-.07-1.38-.07h-1.98c-.18,0-.26.09-.26.26v4.48Z"/>
  <path class="st0" d="M145.93,6.58c0,.82-.25,1.51-.75,2.06-.5.55-1.3.92-2.39,1.12l3.44,4.15c.27.32.58.56.93.71.32.15.72.26,1.2.34v.6h-2.99l-3.85-4.9c-.12-.17-.25-.31-.37-.41-.12-.1-.25-.19-.37-.26-.12-.05-.27-.07-.45-.07-.18-.02-.37-.04-.6-.04v3.25c0,.37.01.69.04.93.05.25.15.44.3.56.15.15.37.25.67.3.27.03.65.04,1.12.04v.6h-5.49v-.6c.35,0,.64-.02.86-.07.22-.05.4-.14.52-.26.12-.12.21-.3.26-.52.05-.25.07-.55.07-.9v-7.29c0-.35-.03-.64-.07-.86-.02-.22-.1-.4-.22-.52-.1-.15-.25-.24-.45-.26-.22-.05-.5-.09-.82-.11v-.6h4.9c1.44,0,2.55.26,3.33.78.8.55,1.2,1.3,1.2,2.24ZM139.72,9.08h1.08c1.05,0,1.82-.19,2.32-.56.5-.37.75-1,.75-1.87s-.2-1.46-.6-1.83c-.4-.35-1.02-.52-1.87-.52h-1.42c-.17,0-.26.09-.26.26v4.52Z"/>
  <path class="st1" d="M152.39,12.59c0,.52.01.93.04,1.23.05.3.14.54.26.71.12.17.3.29.52.34.22.05.51.07.86.07v.6h-5.05v-.6c.37,0,.67-.02.9-.07.22-.07.4-.19.52-.34.12-.15.2-.37.22-.67.05-.27.07-.66.07-1.16v-6.32c0-.45-.03-.81-.07-1.08-.02-.3-.09-.52-.19-.67-.12-.17-.29-.3-.49-.37-.2-.05-.47-.09-.82-.11v-.6h4.75v.6c-.32,0-.59.04-.79.11-.22.07-.39.2-.49.37-.1.17-.17.41-.22.71-.02.3-.04.69-.04,1.16v6.09Z"/>
  <path class="st1" d="M165.77,3.55h.41l.15,3.59h-.56c-.23-.92-.67-1.64-1.35-2.17-.65-.5-1.43-.75-2.35-.75-.65,0-1.22.12-1.72.37-.5.25-.91.6-1.23,1.05-.35.47-.62,1.05-.82,1.72-.18.67-.26,1.44-.26,2.32,0,1.67.35,2.95,1.05,3.85.7.9,1.71,1.35,3.03,1.35,2.02,0,3.31-1.07,3.89-3.21h.63v3.89h-.56l-.37-1.23c-1.07.92-2.39,1.38-3.96,1.38-.87,0-1.67-.14-2.39-.41-.7-.27-1.29-.67-1.79-1.2-.52-.5-.92-1.12-1.2-1.87-.27-.75-.41-1.57-.41-2.47,0-.95.15-1.81.45-2.58.3-.8.71-1.47,1.23-2.02.52-.57,1.15-1.01,1.87-1.31.75-.3,1.56-.45,2.43-.45.62,0,1.21.09,1.76.26.55.17,1.15.46,1.79.86l.3-.97Z"/>
  <path class="st0" d="M175.52,11.21h-4.18c-.17.42-.32.8-.45,1.12-.12.32-.22.61-.3.86-.07.22-.12.42-.15.6-.03.17-.04.31-.04.41,0,.3.09.5.26.6.2.1.51.15.93.15v.6h-3.77v-.6c.22-.02.42-.06.6-.11.18-.05.32-.12.45-.22.15-.1.26-.22.34-.37.1-.15.2-.32.3-.52l4.07-10.16h.67l3.51,8.78c.25.6.46,1.07.64,1.42.17.35.35.61.52.78.15.17.32.29.52.34.2.05.44.07.71.07v.6h-5.08v-.6c.55,0,.92-.05,1.12-.15.22-.1.34-.27.34-.52,0-.1-.01-.2-.04-.3,0-.07-.01-.16-.04-.26-.02-.12-.06-.25-.11-.37-.05-.12-.11-.27-.19-.45l-.64-1.68ZM171.67,10.43h3.55l-1.72-4.6-1.83,4.6Z"/>
  <path class="st1" d="M191.14,15.69l-7.4-9.75h-.07v6.65c.02.52.05.93.07,1.23.03.3.1.54.23.71.1.17.25.29.45.34.2.05.47.07.82.07v.6h-4.19v-.6c.35,0,.64-.02.86-.07.22-.07.4-.19.52-.34.12-.15.21-.37.26-.67.02-.27.04-.66.04-1.16v-6.32c0-.45-.01-.81-.04-1.08-.03-.3-.1-.52-.22-.67-.1-.17-.26-.3-.49-.37-.2-.05-.46-.09-.79-.11v-.6h3.06l6.84,9.08h.04v-6.13c0-.52-.01-.93-.04-1.23-.05-.3-.12-.54-.22-.71-.1-.17-.26-.29-.49-.34-.2-.05-.46-.07-.79-.07v-.6h4.19v.6c-.35,0-.64.04-.86.11-.22.05-.4.15-.52.3-.12.15-.21.37-.26.67-.05.3-.07.69-.07,1.16v9.3h-.93Z"/>
  <path class="st1" d="M195.59,11.88h.6c.07.47.21.9.41,1.27.2.37.45.69.75.93.3.27.66.47,1.08.6.4.15.82.22,1.27.22.77,0,1.38-.17,1.83-.52.45-.37.67-.87.67-1.49,0-.27-.04-.51-.11-.71-.1-.22-.25-.44-.45-.64-.22-.2-.51-.4-.86-.6-.35-.2-.79-.41-1.31-.64-.65-.3-1.18-.57-1.61-.82-.45-.27-.8-.55-1.05-.82-.27-.27-.46-.57-.56-.9-.1-.3-.15-.66-.15-1.08,0-.47.09-.91.26-1.31.15-.4.39-.75.71-1.05.3-.3.66-.54,1.08-.71.45-.15.92-.22,1.42-.22.45,0,.87.07,1.27.22.4.15.8.37,1.2.67l.41-.67h.37l.15,3.1h-.56c-.25-.87-.61-1.51-1.08-1.91-.47-.42-1.05-.64-1.72-.64-.62,0-1.12.16-1.5.49-.37.3-.56.71-.56,1.23,0,.25.04.49.11.71.07.2.21.39.41.56.2.17.45.36.75.56.3.17.67.36,1.12.56.75.35,1.38.66,1.91.93.5.3.91.6,1.23.9.3.3.51.61.63.93.12.32.19.7.19,1.12,0,.52-.11,1-.34,1.42-.2.45-.49.82-.86,1.12-.37.32-.82.56-1.35.71-.52.17-1.1.26-1.72.26s-1.13-.07-1.61-.22c-.47-.17-.95-.46-1.42-.86l-.45.78h-.37l-.22-3.51Z"/>
  <path class="st0" d="M104.41,23.69c0,.85-.25,1.54-.75,2.09-.5.55-1.3.92-2.39,1.12l3.44,4.15c.27.32.59.56.93.71.32.15.72.26,1.2.34v.6h-2.99l-3.85-4.9c-.12-.17-.25-.31-.37-.41-.12-.1-.25-.19-.37-.26-.12-.05-.27-.07-.45-.07-.17-.03-.37-.04-.6-.04v3.25c0,.37.01.69.04.93.05.25.15.44.3.56.15.15.37.24.67.26.27.05.65.07,1.12.07v.6h-5.49v-.6c.35,0,.64-.02.86-.07.22-.05.4-.14.52-.26.12-.12.21-.3.26-.52.05-.25.07-.55.07-.9v-7.29c0-.35-.02-.64-.07-.86-.02-.22-.09-.4-.19-.52-.12-.15-.29-.24-.49-.26-.22-.05-.5-.09-.82-.11v-.6h4.9c1.45,0,2.55.26,3.33.78.8.52,1.2,1.26,1.2,2.2ZM98.21,26.23h1.08c1.05,0,1.82-.19,2.32-.56.5-.37.75-1,.75-1.87s-.2-1.46-.6-1.83c-.4-.37-1.02-.56-1.87-.56h-1.42c-.17,0-.26.1-.26.3v4.52Z"/>
  <path class="st1" d="M110.87,26.12c.55,0,1.02-.04,1.42-.11.37-.07.67-.19.9-.34.22-.12.39-.31.49-.56.1-.22.15-.49.15-.78h.52v4.26h-.52c0-.32-.05-.6-.15-.82-.1-.22-.25-.41-.45-.56-.22-.15-.53-.26-.93-.34-.37-.1-.85-.15-1.42-.15v3.55c0,.32.04.6.11.82.07.22.22.41.45.56.2.15.46.25.78.3.32.05.74.07,1.23.07.55,0,1.02-.04,1.42-.11.37-.07.69-.21.93-.41.27-.17.49-.41.64-.71.15-.32.29-.71.41-1.16h.56l-.22,3.06h-9.68v-.6c.37,0,.67-.02.9-.07.22-.05.4-.14.52-.26.12-.12.2-.3.22-.52.05-.25.08-.55.08-.9v-7.29c0-.35-.03-.64-.08-.86-.03-.22-.09-.4-.19-.52-.12-.15-.29-.24-.49-.26-.2-.05-.47-.09-.82-.11v-.6h9.01l.15,2.73h-.52c-.07-.4-.19-.74-.34-1.01-.12-.27-.31-.49-.56-.64-.25-.15-.56-.26-.94-.34-.37-.05-.82-.07-1.35-.07h-1.98c-.18,0-.26.09-.26.26v4.48Z"/>
  <path class="st1" d="M119.43,29.04h.56c.08.47.21.9.41,1.27.2.37.46.69.79.93.3.27.65.47,1.05.6.4.15.83.22,1.31.22.77,0,1.38-.19,1.83-.56.45-.35.67-.83.67-1.46,0-.27-.05-.51-.15-.71-.08-.22-.23-.44-.45-.64-.2-.2-.47-.4-.82-.6-.35-.2-.78-.41-1.31-.64-.65-.3-1.2-.57-1.64-.82-.42-.27-.77-.55-1.05-.82-.25-.27-.42-.57-.52-.9-.12-.32-.19-.69-.19-1.08,0-.47.09-.91.26-1.31.17-.42.41-.77.71-1.05.32-.3.7-.54,1.12-.71.42-.15.9-.22,1.42-.22.45,0,.87.07,1.27.22.4.12.8.35,1.2.67l.41-.67h.34l.19,3.1h-.56c-.25-.87-.62-1.51-1.12-1.91-.47-.42-1.03-.64-1.68-.64s-1.16.16-1.53.49c-.37.3-.56.71-.56,1.23,0,.25.05.47.15.67.07.22.21.42.41.6.18.17.41.35.71.52.3.2.67.4,1.12.6.77.35,1.42.66,1.94.93.5.3.9.6,1.19.9.3.3.51.61.64.93.12.32.19.7.19,1.12,0,.5-.1.97-.3,1.42-.22.45-.51.82-.86,1.12-.4.32-.85.56-1.35.71-.52.17-1.1.26-1.72.26s-1.13-.07-1.61-.22c-.47-.17-.96-.46-1.46-.86l-.41.78h-.37l-.22-3.51Z"/>
  <path class="st0" d="M139.24,23.69c0,.57-.09,1.07-.26,1.49-.2.45-.49.82-.86,1.12-.37.3-.86.52-1.46.67-.62.17-1.37.26-2.24.26h-1.38v3.03c0,.37.01.69.04.93.05.25.15.44.3.56.15.15.37.24.67.26.27.05.65.07,1.12.07v.6h-5.49v-.6c.35,0,.63-.02.86-.07.22-.05.4-.14.52-.26.12-.12.21-.3.26-.52.05-.25.08-.55.08-.9v-7.29c0-.35-.03-.64-.08-.86-.02-.22-.1-.4-.22-.52-.1-.15-.25-.24-.45-.26-.22-.05-.5-.09-.82-.11v-.6h4.9c1.45,0,2.55.26,3.33.78.8.52,1.19,1.26,1.19,2.2ZM133.03,26.46h1.08c1.05,0,1.82-.2,2.32-.6.5-.4.75-1.06.75-1.98,0-.87-.2-1.49-.6-1.87-.4-.37-1.02-.57-1.87-.6h-1.42c-.18,0-.26.1-.26.3v4.75Z"/>
  <path class="st0" d="M147.46,20.55c.9,0,1.74.16,2.54.49.8.32,1.48.76,2.06,1.31.57.57,1.03,1.23,1.38,1.98.32.77.49,1.59.49,2.47s-.16,1.63-.49,2.35c-.35.75-.81,1.4-1.38,1.94-.6.55-1.28.98-2.06,1.31-.8.3-1.64.45-2.54.45s-1.78-.15-2.58-.45c-.77-.32-1.46-.76-2.06-1.31-.57-.55-1.03-1.2-1.38-1.94-.32-.72-.49-1.51-.49-2.35s.16-1.69.49-2.47c.35-.75.81-1.41,1.38-1.98.57-.55,1.26-.98,2.06-1.31.8-.32,1.66-.49,2.58-.49ZM147.46,31.99c.67,0,1.28-.11,1.83-.34.55-.25,1.01-.6,1.38-1.05.4-.45.7-.98.9-1.61.22-.65.34-1.37.34-2.17s-.11-1.57-.34-2.24c-.2-.67-.49-1.25-.86-1.72-.4-.47-.87-.83-1.42-1.08-.55-.25-1.16-.37-1.83-.37s-1.32.12-1.87.37c-.55.25-1.02.61-1.42,1.08-.37.47-.66,1.05-.86,1.72-.22.67-.34,1.42-.34,2.24s.11,1.52.34,2.17c.2.62.49,1.16.86,1.61.4.45.87.8,1.42,1.05.55.22,1.17.34,1.87.34Z"/>
  <path class="st1" d="M165.81,32.85l-7.4-9.75h-.04v6.65c0,.52.01.93.04,1.23.03.3.1.54.23.71.1.17.25.29.45.34.2.05.47.07.82.07v.6h-4.18v-.6c.35,0,.64-.02.86-.07.22-.07.4-.19.52-.34.12-.15.21-.37.26-.67.05-.27.08-.66.08-1.16v-6.32c0-.45-.03-.81-.08-1.08-.02-.3-.1-.52-.22-.67-.1-.17-.26-.3-.49-.37-.2-.05-.46-.09-.79-.11v-.6h3.07l6.84,9.08h.04v-6.13c0-.52-.01-.93-.04-1.23-.05-.3-.12-.54-.22-.71-.1-.17-.25-.29-.45-.34-.22-.05-.5-.07-.82-.07v-.6h4.19v.6c-.35,0-.64.04-.86.11-.22.05-.4.15-.52.3-.12.15-.21.37-.26.67-.05.3-.07.69-.07,1.16v9.3h-.93Z"/>
  <path class="st1" d="M170.25,29.04h.6c.07.47.21.9.41,1.27.2.37.45.69.75.93.3.27.66.47,1.08.6.4.15.82.22,1.27.22.77,0,1.38-.19,1.83-.56.45-.35.67-.83.67-1.46,0-.27-.04-.51-.11-.71-.1-.22-.25-.44-.45-.64-.22-.2-.51-.4-.86-.6-.35-.2-.79-.41-1.31-.64-.65-.3-1.18-.57-1.61-.82-.45-.27-.8-.55-1.05-.82-.27-.27-.46-.57-.56-.9-.1-.32-.15-.69-.15-1.08,0-.47.09-.91.26-1.31.15-.42.39-.77.71-1.05.3-.3.67-.54,1.12-.71.42-.15.88-.22,1.38-.22.45,0,.87.07,1.27.22.4.12.8.35,1.2.67l.41-.67h.37l.15,3.1h-.56c-.25-.87-.61-1.51-1.08-1.91-.47-.42-1.05-.64-1.72-.64-.62,0-1.12.16-1.49.49-.37.3-.56.71-.56,1.23,0,.25.04.47.11.67.1.22.24.42.41.6.2.17.45.35.75.52.3.2.67.4,1.12.6.77.35,1.41.66,1.91.93.5.3.91.6,1.23.9.3.3.51.61.63.93.12.32.19.7.19,1.12,0,.5-.11.97-.34,1.42-.2.45-.49.82-.86,1.12-.37.32-.82.56-1.35.71-.52.17-1.1.26-1.72.26s-1.13-.07-1.61-.22c-.47-.17-.95-.46-1.42-.86l-.45.78h-.34l-.26-3.51Z"/>
  <path class="st1" d="M183.85,29.75c0,.52.03.93.07,1.23.03.3.1.54.22.71.12.17.3.29.52.34.22.05.52.07.9.07v.6h-5.08v-.6c.37,0,.67-.02.9-.07.22-.07.4-.19.52-.34.12-.15.21-.37.26-.67.03-.27.04-.66.04-1.16v-6.32c0-.45-.01-.81-.04-1.08-.05-.3-.12-.52-.22-.67-.1-.17-.26-.3-.49-.37-.2-.05-.46-.09-.79-.11v-.6h4.71v.6c-.32,0-.59.04-.79.11-.2.07-.36.2-.49.37-.1.17-.16.41-.19.71-.05.3-.07.69-.07,1.16v6.09Z"/>
  <path class="st0" d="M187.26,32.7v-.6c.4,0,.72-.02.97-.07.25-.05.44-.14.56-.26.12-.12.21-.3.26-.52.05-.25.07-.55.07-.9v-7.29c0-.35-.01-.64-.04-.86-.05-.22-.12-.4-.22-.52-.12-.15-.29-.24-.49-.26-.2-.05-.47-.09-.82-.11v-.6h4.67c1.39,0,2.49.25,3.29.75.77.5,1.16,1.2,1.16,2.09,0,.7-.21,1.26-.63,1.68-.45.45-1.13.81-2.06,1.08v.07c.32.02.6.06.82.11.25.02.46.07.64.15.2.05.37.11.52.19.17.1.34.2.49.3.92.65,1.38,1.47,1.38,2.47,0,.55-.15,1.06-.45,1.53-.3.47-.72.85-1.27,1.12-.2.07-.39.15-.56.22-.2.05-.42.09-.67.11-.25.05-.54.09-.86.11h-6.76ZM191.63,26.01c.32,0,.6-.01.82-.04.22,0,.41-.01.56-.04.15-.02.29-.06.41-.11.12-.05.25-.11.37-.19.32-.22.56-.47.71-.75.15-.3.23-.69.23-1.16,0-.82-.2-1.41-.6-1.76-.4-.37-1.03-.56-1.91-.56h-1.2c-.17,0-.26.1-.26.3v4.3h.86ZM192.9,32.03c1.89,0,2.84-.8,2.84-2.39,0-1.2-.49-2.02-1.46-2.47-.17-.07-.34-.14-.49-.19-.15-.05-.32-.09-.52-.11-.22-.02-.47-.05-.75-.07h-1.76v3.48c0,.62.16,1.07.49,1.35.32.27.87.41,1.64.41Z"/>
  <path class="st1" d="M209.68,32.7h-10.05v-.6c.35,0,.63-.02.86-.07.23-.05.4-.14.52-.26.12-.12.21-.3.26-.52.05-.25.07-.55.07-.9v-7.29c0-.35-.02-.64-.07-.86-.03-.22-.1-.4-.22-.52-.1-.15-.25-.24-.45-.26-.23-.05-.5-.09-.82-.11v-.6h4.75v.6c-.35,0-.62.02-.82.07-.2.05-.35.15-.45.3-.1.12-.18.31-.22.56-.02.22-.04.54-.04.93v6.73c0,.45.04.81.11,1.08.1.27.25.49.45.64.22.15.51.25.86.3.35.05.8.07,1.35.07.6,0,1.1-.02,1.49-.07.4-.07.74-.2,1.01-.37.27-.17.5-.41.67-.71.15-.3.29-.7.41-1.2h.6l-.26,3.06Z"/>
  <path class="st1" d="M214.68,26.12c.57,0,1.05-.04,1.42-.11.37-.07.67-.19.9-.34.22-.12.39-.31.49-.56.1-.22.15-.49.15-.78h.56v4.26h-.56c0-.32-.04-.6-.11-.82-.1-.22-.26-.41-.49-.56-.22-.15-.52-.26-.9-.34-.37-.1-.86-.15-1.46-.15v3.55c0,.32.05.6.15.82.07.22.21.41.41.56.2.15.47.25.82.3.32.05.72.07,1.2.07.57,0,1.05-.04,1.42-.11.4-.07.72-.21.97-.41.25-.17.46-.41.64-.71.15-.32.27-.71.37-1.16h.6l-.22,3.06h-9.68v-.6c.35,0,.64-.02.86-.07.22-.05.4-.14.52-.26.12-.12.21-.3.26-.52.03-.25.04-.55.04-.9v-7.29c0-.35-.01-.64-.04-.86-.02-.22-.1-.4-.22-.52-.1-.15-.26-.24-.49-.26-.2-.05-.46-.09-.79-.11v-.6h9.01l.15,2.73h-.56c-.05-.4-.15-.74-.3-1.01-.15-.27-.35-.49-.6-.64-.22-.15-.52-.26-.9-.34-.37-.05-.83-.07-1.38-.07h-1.98c-.18,0-.26.09-.26.26v4.48Z"/>
  <path class="st1" d="M98.21,46.9c0,.52.01.93.04,1.23.05.3.14.54.26.71.12.17.29.29.49.34.22.05.52.07.9.07v.6h-5.04v-.6c.35,0,.64-.04.86-.11.22-.05.4-.15.52-.3.12-.15.21-.37.26-.67.05-.27.07-.66.07-1.16v-6.32c0-.45-.02-.81-.07-1.08-.02-.3-.09-.52-.19-.67-.12-.17-.29-.3-.49-.37-.22-.05-.5-.09-.82-.11v-.6h4.75v.6c-.32,0-.6.04-.82.11-.2.07-.35.2-.45.37-.1.17-.17.41-.22.71-.03.3-.04.69-.04,1.16v6.09Z"/>
  <path class="st1" d="M112.59,50l-7.4-9.75h-.07v6.65c0,.52.02.93.07,1.23.03.3.1.54.22.71.1.17.25.29.45.34.2.05.47.07.82.07v.6h-4.22v-.6c.37,0,.67-.04.9-.11.22-.05.4-.15.52-.3.12-.15.21-.37.26-.67.02-.27.04-.66.04-1.16v-6.32c0-.45-.01-.81-.04-1.08-.05-.3-.12-.52-.22-.67-.1-.17-.26-.3-.49-.37-.2-.05-.46-.09-.78-.11v-.6h3.06l6.8,9.08h.08v-6.13c0-.52-.01-.93-.04-1.23-.05-.3-.12-.54-.22-.71-.12-.17-.29-.29-.49-.34-.2-.05-.46-.07-.78-.07v-.6h4.19v.6c-.37,0-.67.02-.9.07-.22.07-.4.19-.52.34-.12.15-.2.37-.22.67-.05.3-.07.69-.07,1.16v9.3h-.93Z"/>
  <path class="st1" d="M127.84,50l-7.44-9.75h-.04v6.65c0,.52.01.93.04,1.23.05.3.12.54.22.71.12.17.29.29.49.34.2.05.46.07.79.07v.6h-4.19v-.6c.35,0,.64-.04.86-.11.22-.05.4-.15.52-.3.12-.15.21-.37.26-.67.05-.27.07-.66.07-1.16v-6.32c0-.45-.03-.81-.07-1.08-.03-.3-.1-.52-.22-.67-.1-.17-.25-.3-.45-.37-.22-.05-.5-.09-.82-.11v-.6h3.1l6.8,9.08h.07v-6.13c0-.52-.02-.93-.07-1.23-.03-.3-.1-.54-.22-.71-.1-.17-.25-.29-.45-.34-.2-.05-.47-.07-.82-.07v-.6h4.22v.6c-.37,0-.67.02-.9.07-.22.07-.4.19-.52.34-.12.15-.21.37-.26.67-.02.3-.04.69-.04,1.16v9.3h-.93Z"/>
  <path class="st0" d="M139.42,37.71c.9,0,1.74.16,2.54.49.8.32,1.48.76,2.06,1.31.57.57,1.03,1.23,1.38,1.98.32.77.49,1.59.49,2.47s-.16,1.63-.49,2.35c-.35.75-.81,1.4-1.38,1.94-.6.55-1.28.98-2.06,1.31-.8.3-1.64.45-2.54.45s-1.77-.15-2.54-.45c-.8-.32-1.48-.76-2.05-1.31-.6-.55-1.06-1.2-1.38-1.94-.35-.72-.52-1.51-.52-2.35s.16-1.69.49-2.47c.35-.75.81-1.41,1.38-1.98.57-.55,1.26-.98,2.06-1.31.8-.32,1.66-.49,2.58-.49ZM139.42,49.14c.67,0,1.28-.11,1.83-.34.55-.25,1.02-.6,1.42-1.05.37-.45.67-.98.9-1.61.2-.65.3-1.37.3-2.17s-.1-1.57-.3-2.24c-.22-.67-.52-1.25-.9-1.72-.4-.47-.87-.83-1.42-1.08-.55-.25-1.16-.37-1.83-.37s-1.32.12-1.87.37-1.02.61-1.42,1.08c-.37.47-.66,1.05-.86,1.72-.22.67-.34,1.42-.34,2.24s.11,1.52.34,2.17c.2.62.49,1.16.86,1.61.4.45.87.8,1.42,1.05.55.22,1.17.34,1.87.34Z"/>
  <path class="st1" d="M154.11,47.46l2.76-6.76c.15-.37.25-.67.3-.9.07-.22.11-.42.11-.6,0-.27-.09-.47-.26-.6-.17-.1-.5-.15-.97-.15v-.6h3.81v.6c-.25.02-.46.06-.64.11-.17.05-.32.12-.45.22-.12.1-.24.22-.34.37-.1.15-.2.34-.3.56l-4.22,10.28h-.56l-4-9.72c-.15-.3-.29-.56-.41-.78-.12-.25-.26-.44-.41-.56-.18-.15-.35-.26-.52-.34-.2-.07-.44-.12-.71-.15v-.6h5.08v.6c-.3,0-.54.01-.71.04-.18.02-.32.06-.45.11-.1.07-.17.15-.22.22-.02.07-.04.17-.04.3s.03.29.08.49c.05.2.15.49.3.86l2.77,6.99Z"/>
  <path class="st0" d="M167.3,45.52h-4.15c-.2.42-.36.8-.49,1.12-.1.32-.2.61-.3.86-.07.22-.12.42-.15.6-.02.17-.04.31-.04.41,0,.27.09.47.26.6.2.1.51.15.93.15v.6h-3.77v-.6c.22-.02.42-.06.6-.11.18-.05.32-.12.45-.22.15-.1.27-.22.37-.37.1-.15.19-.34.26-.56l4.07-10.13h.67l3.55,8.78c.22.57.42,1.03.6,1.38.17.35.35.62.52.82.18.17.35.29.52.34.2.05.44.07.71.07v.6h-5.08v-.6c.55,0,.92-.05,1.12-.15.22-.12.34-.3.34-.52,0-.1-.01-.2-.04-.3,0-.07-.01-.17-.04-.3-.02-.1-.06-.21-.11-.34-.05-.12-.11-.27-.19-.45l-.63-1.68ZM163.45,44.73h3.55l-1.72-4.6-1.83,4.6Z"/>
  <path class="st1" d="M184.01,40.84h-.64c-.02-.45-.1-.82-.22-1.12-.1-.32-.26-.57-.49-.75-.2-.15-.46-.26-.78-.34s-.71-.11-1.16-.11h-.93c-.22.02-.4.06-.52.11-.12.02-.21.07-.26.15-.02.05-.04.12-.04.22v8.33c0,.32.02.61.07.86.02.22.11.42.26.6.15.15.35.26.6.34.27.07.64.11,1.08.11v.6h-5.9v-.6c.42,0,.77-.04,1.05-.11.27-.07.49-.19.64-.34.12-.17.21-.37.26-.6.05-.25.07-.54.07-.86v-8.33c0-.1-.01-.17-.04-.22-.05-.07-.12-.12-.22-.15-.12-.05-.29-.09-.49-.11h-.78c-.4,0-.77.01-1.12.04-.35.02-.65.11-.9.26-.27.15-.49.39-.63.71-.15.3-.22.73-.22,1.31h-.6v-2.99h11.77l.15,2.99Z"/>
  <path class="st1" d="M189.5,46.9c0,.52.02.93.07,1.23.03.3.1.54.22.71s.3.29.52.34c.22.05.52.07.9.07v.6h-5.08v-.6c.37,0,.67-.04.9-.11.22-.05.4-.15.52-.3.12-.15.21-.37.26-.67.03-.27.04-.66.04-1.16v-6.32c0-.45-.01-.81-.04-1.08-.05-.3-.12-.52-.22-.67-.1-.17-.26-.3-.49-.37-.2-.05-.46-.09-.78-.11v-.6h4.71v.6c-.32,0-.58.04-.79.11-.2.07-.36.2-.49.37-.1.17-.16.41-.19.71-.05.3-.07.69-.07,1.16v6.09Z"/>
  <path class="st0" d="M200.26,37.71c.9,0,1.74.16,2.54.49.8.32,1.48.76,2.05,1.31.57.57,1.03,1.23,1.38,1.98.32.77.49,1.59.49,2.47s-.16,1.63-.49,2.35c-.35.75-.81,1.4-1.38,1.94-.6.55-1.28.98-2.05,1.31-.8.3-1.64.45-2.54.45s-1.77-.15-2.54-.45c-.8-.32-1.49-.76-2.09-1.31-.57-.55-1.02-1.2-1.35-1.94-.35-.72-.52-1.51-.52-2.35s.16-1.69.49-2.47c.35-.75.81-1.41,1.38-1.98.57-.55,1.26-.98,2.06-1.31.8-.32,1.66-.49,2.58-.49ZM200.26,49.14c.67,0,1.28-.11,1.83-.34.55-.25,1.02-.6,1.42-1.05.37-.45.67-.98.9-1.61.2-.65.3-1.37.3-2.17s-.1-1.57-.3-2.24c-.22-.67-.52-1.25-.9-1.72-.4-.47-.87-.83-1.42-1.08-.55-.25-1.16-.37-1.83-.37s-1.32.12-1.87.37c-.55.25-1.02.61-1.42,1.08-.37.47-.66,1.05-.86,1.72-.22.67-.34,1.42-.34,2.24s.11,1.52.34,2.17c.2.62.49,1.16.86,1.61.4.45.87.8,1.42,1.05.55.22,1.17.34,1.87.34Z"/>
  <path class="st1" d="M219.39,50l-7.4-9.75h-.04v6.65c-.02.52-.01.93.04,1.23.02.3.1.54.22.71.1.17.25.29.45.34.2.05.47.07.82.07v.6h-4.18v-.6c.35,0,.63-.04.86-.11.22-.05.4-.15.52-.3.12-.15.21-.37.26-.67.03-.27.04-.66.04-1.16v-6.32c0-.45-.01-.81-.04-1.08-.02-.3-.1-.52-.22-.67-.1-.17-.26-.3-.49-.37-.2-.05-.46-.09-.79-.11v-.6h3.06l6.84,9.08h.04v-6.13c0-.52-.01-.93-.04-1.23-.05-.3-.12-.54-.22-.71-.1-.17-.25-.29-.45-.34-.22-.05-.5-.07-.82-.07v-.6h4.19v.6c-.35,0-.64.02-.86.07-.22.07-.4.19-.52.34-.12.15-.21.37-.26.67-.05.3-.07.69-.07,1.16v9.3h-.93Z"/>
  <path class="st1" d="M208.86,14.65c-.2.85-.41,1.53-.64,2.06-.22.55-.46.97-.71,1.27-.25.32-.51.54-.79.64-.3.12-.62.19-.97.19s-.63-.09-.86-.26c-.22-.2-.34-.42-.34-.67,0-.22.05-.4.15-.52.12-.1.27-.15.45-.15s.3.04.37.11c.07.1.12.2.15.3.05.12.11.22.19.3.05.1.16.15.34.15s.35-.1.52-.3c.15-.2.26-.46.34-.78l1.83-7.03h-1.2l.15-.56h1.2c.17-.75.37-1.38.6-1.91.2-.52.42-.96.67-1.31.25-.32.52-.57.82-.75.27-.15.57-.22.9-.22.5,0,.91.1,1.23.3.3.22.45.49.45.78,0,.2-.05.36-.15.49-.1.12-.25.19-.45.19-.15,0-.27-.02-.37-.07-.07-.05-.14-.12-.19-.22-.05-.1-.09-.2-.11-.3-.02-.1-.05-.19-.07-.26-.03-.1-.07-.17-.15-.22-.07-.07-.17-.11-.3-.11-.17,0-.34.09-.49.26-.18.2-.34.45-.49.75-.15.32-.29.71-.41,1.16-.12.45-.25.93-.37,1.46h1.27l-.19.56h-1.2l-1.2,4.71Z"/>
  <path class="st0" d="M213.08,15.69c-.27,0-.54-.06-.78-.19-.25-.1-.46-.26-.64-.49-.17-.22-.32-.49-.45-.78-.1-.32-.15-.69-.15-1.08,0-.52.1-1.05.3-1.57.2-.52.47-1,.82-1.42.32-.4.7-.72,1.12-.97.45-.25.9-.37,1.35-.37.3,0,.57.06.82.19.25.1.46.25.63.45.2.22.35.49.45.78.1.3.15.62.15.97,0,.52-.1,1.06-.3,1.61-.22.52-.5,1-.82,1.42-.35.42-.74.77-1.16,1.05-.45.27-.9.41-1.35.41ZM213.15,15.06c.3,0,.59-.15.86-.45.27-.3.52-.66.75-1.08.22-.45.4-.93.52-1.46.15-.52.22-1.02.22-1.49,0-.45-.07-.76-.22-.93-.15-.15-.36-.22-.64-.22-.2,0-.39.06-.56.19-.2.12-.37.3-.52.52-.17.22-.34.49-.49.78-.15.27-.27.57-.37.9-.1.32-.19.66-.26,1.01-.05.35-.07.67-.07.97,0,.47.07.8.23.97.15.2.34.3.56.3Z"/>
  <path class="st1" d="M217.23,10.69c.1-.22.24-.44.41-.64.2-.22.41-.42.63-.6.22-.2.45-.35.67-.45.22-.12.41-.19.56-.19.2,0,.35.07.45.22.1.15.15.39.15.71,0,.15-.01.29-.04.41,0,.12-.02.26-.07.41l.04.04c.1-.22.25-.46.45-.71.17-.22.37-.42.6-.6.2-.17.41-.32.63-.45.22-.1.42-.15.6-.15.25,0,.46.07.63.22.15.15.22.34.22.56s-.06.4-.19.52c-.15.15-.34.22-.56.22-.12,0-.22-.02-.3-.07-.07-.05-.15-.1-.22-.15-.05-.05-.1-.1-.15-.15-.05-.05-.11-.07-.19-.07-.15,0-.34.1-.56.3-.2.22-.41.51-.64.86-.22.37-.45.81-.67,1.31-.22.47-.42,1-.6,1.57l-.56,1.72h-1.16l.82-2.58c.15-.5.27-.91.37-1.23.1-.32.19-.6.26-.82.05-.22.09-.4.11-.52.02-.12.04-.24.04-.34,0-.17-.06-.26-.19-.26-.1,0-.2.04-.3.11-.12.05-.25.12-.37.22-.12.1-.24.21-.34.34-.1.12-.17.25-.22.37l-.34-.15Z"/>
  <path class="st1" d="M14.46,9.45l3.06-1.64,3.06,1.64-.6-3.44,2.47-2.39-3.4-.52L17.53,0l-1.53,3.1-3.44.52,2.5,2.39-.6,3.44Z"/>
  <path class="st1" d="M4.93,0l-1.53,3.1-3.4.52,2.47,2.39-.56,3.44,3.03-1.64,3.06,1.64-.56-3.44,2.47-2.39-3.44-.52L4.93,0Z"/>
  <path class="st1" d="M17.53,18.83l3.06,1.61-.6-3.4,2.47-2.43-3.4-.49-1.53-3.1-1.53,3.1-3.44.49,2.5,2.43-.6,3.4,3.06-1.61Z"/>
  <path class="st1" d="M6.46,14.13l-1.53-3.1-1.53,3.1-3.4.49,2.47,2.43-.56,3.4,3.03-1.61,3.06,1.61-.56-3.4,2.47-2.43-3.44-.49Z"/>
  <path class="st1" d="M18.69,29.33c1.01-.45,1.72-1.46,1.72-2.62,0-1.61-1.31-2.88-2.88-2.88s-2.88,1.27-2.88,2.88c0,1.16.67,2.17,1.68,2.62v9.38h66.48v-2.35H18.69v-7.03Z"/>
  <path class="st1" d="M32.74,14.54c-.49-1.01-1.46-1.68-2.65-1.68-1.57,0-2.88,1.27-2.88,2.88s1.31,2.88,2.88,2.88c1.2,0,2.17-.71,2.65-1.72h50.07v-2.35h-50.07Z"/>
  <path class="st1" d="M30.08,23.84c-1.57,0-2.88,1.27-2.88,2.88s1.31,2.88,2.88,2.88c1.2,0,2.2-.71,2.65-1.72h50.07v-2.35h-50.11c-.45-.97-1.42-1.68-2.62-1.68Z"/>
  <path class="st1" d="M32.74,3.55c-.49-1.01-1.46-1.72-2.65-1.72-1.57,0-2.88,1.31-2.88,2.88s1.31,2.91,2.88,2.91c1.2,0,2.17-.71,2.65-1.72h50.07v-2.35h-50.07Z"/>
  <path class="st1" d="M6.13,29.33c1.01-.45,1.72-1.46,1.72-2.62,0-1.61-1.31-2.88-2.91-2.88s-2.88,1.27-2.88,2.88c0,1.16.71,2.17,1.72,2.62v20.52h79.04v-2.35H6.13v-18.16Z"/>
</svg>