<?xml version="1.0" encoding="UTF-8"?>
<svg id="Layer_1" data-name="Layer 1" xmlns="http://www.w3.org/2000/svg" viewBox="0 0 107.05 48.18">
  <defs>
    <style>
      .cls-1 {
        fill: #fff;
      }
    </style>
  </defs>
  <path id="halcyon-futures-logo-darkblue" class="cls-1" d="M19.22,21.22c0,.35-.32.46-.81.46h-4.04c-.49,0-.81-.09-.81-.44,0-.29.2-.41.46-.55.35-.2.7-.46.87-.75.23-.41.38-.9.38-2.93v-5.4c0-.17-.09-.29-.32-.29H4.42c-.23,0-.29.09-.29.26v5.43c0,2.03.15,2.53.38,2.93.17.29.49.55.87.75.2.12.46.26.46.55,0,.35-.32.44-.81.44H.99c-.49,0-.81-.12-.81-.46,0-.26.26-.38.49-.52.38-.2.64-.46.84-.75.26-.41.38-.9.38-2.93V5.31c0-2.29-.12-2.79-.7-3.16-.44-.29-.87-.35-.87-.73.03-.35.29-.46.73-.46h3.92c.46,0,.75.12.75.46,0,.38-.44.44-.87.73-.61.38-.73.87-.73,3.16v4.53c0,.23.09.29.35.29h10.54c.2,0,.26-.06.26-.26v-4.56c0-2.29-.12-2.79-.73-3.16-.44-.29-.87-.35-.87-.73.03-.35.32-.46.75-.46h3.92c.44,0,.7.12.73.46,0,.38-.44.44-.87.73-.58.38-.7.87-.7,3.16v11.7c0,2.03.12,2.53.38,2.93.2.29.46.55.84.75.23.15.49.26.49.52ZM34.76,20.5c0,.67-.84,1.51-1.83,1.51-.87,0-1.74-.58-1.92-2.35,0-.06,0-.12-.06-.12-.03,0-.06.03-.12.12-.96,1.57-2.79,2.35-4.59,2.35-2.29,0-4.5-1.36-4.5-3.72,0-1.13.58-2.24,1.71-3.02,1.57-1.1,3.34-1.34,5.02-2.12,1.74-.81,2.44-1.92,2.44-3.11,0-1.42-.9-2.64-2.64-2.64-.96,0-1.68.29-2.32.81-1.05.84-1.48,1.89-1.83,2.35-.15.23-.32.44-.61.44-.64,0-.64-.75-.64-1.28,0-.73.15-1.68.46-2.12.41-.49,1.25-.87,2.18-1.1.73-.2,1.6-.29,2.38-.29,2.06,0,3.28.7,4.09,1.6,1.13,1.28,1.19,3.02,1.19,4.5,0,1.57-.09,3.28-.09,4.99,0,1.31,0,2.82.81,2.82.12,0,.32-.06.44-.06.38,0,.41.32.41.44ZM30.93,13.3c0-.06-.03-.12-.09-.12-.03,0-.06,0-.12.06-1.16.96-3.34,1.51-4.91,2.5-1.1.7-1.57,1.65-1.57,2.58,0,1.48,1.1,2.41,2.53,2.41,1.25,0,2.67-.7,3.45-2.32.67-1.39.7-2.85.7-4.67v-.44ZM42.8,21.19c0,.38-.29.49-.67.49h-4.33c-.38,0-.67-.12-.67-.49,0-.17.12-.32.44-.49.26-.15.64-.35.84-.7.29-.44.44-1.07.44-3.11V4.06c0-.81-.03-1.28-.29-1.6-.2-.23-.55-.38-.9-.46-.46-.12-.67-.26-.67-.52s.09-.44.78-.61c.99-.23,1.45-.38,2.29-.73.2-.09.35-.15.49-.15.38,0,.52.29.52.7v16.2c0,2.03.17,2.7.44,3.11.23.35.58.55.84.7.35.2.44.32.44.49ZM51.71,22.04c-2.06,0-3.92-.87-5.14-2.55-.93-1.28-1.31-2.76-1.31-4.53,0-2.61,1.02-5.55,3.34-7.29,1.36-1.05,2.79-1.45,4.44-1.45,1.05,0,2.73.29,3.45,1.05.44.44.52,1.28.52,1.97,0,1.19-.17,1.65-.7,1.65-.7,0-.73-.84-1.34-1.71-.67-.96-1.63-1.6-2.93-1.6s-2.29.67-2.96,1.48c-1.19,1.42-1.54,3.22-1.54,5.14,0,1.48.38,2.93.96,3.89.93,1.54,2.47,2.21,3.95,2.21,1.65,0,2.9-.84,3.69-1.71.26-.29.46-.52.78-.52s.49.26.49.52c0,.2-.12.44-.26.67-.99,1.6-3.08,2.79-5.46,2.79ZM73.95,7.61c-.55.38-.81.64-1.22,1.22-.32.44-.7,1.22-1.02,1.95-.64,1.39-3.25,7.75-4.27,10.19-.87,2.09-1.97,4.5-3.83,5.66-.73.46-1.51.67-2.09.67-1.25,0-2-.73-2-2,0-.61.26-1.13.87-1.13.73,0,1.07,1.1,2.18,1.1.64,0,1.22-.49,1.68-1.05.52-.61,1.1-1.6,1.36-2.26.06-.15.09-.23.09-.29s-.03-.15-.06-.23l-4.06-10.65c-.46-1.16-.84-2.26-1.36-2.79-.26-.26-.52-.38-.78-.52-.26-.15-.41-.23-.41-.46,0-.35.26-.46.84-.46h4.15c.44,0,.64.17.64.46,0,.64-1.28.44-1.28,1.65,0,.41.12,1.02.52,2.09.61,1.65,2.76,7.11,3.02,7.78.03.09.06.09.09.09.06,0,.09-.03.12-.09.2-.52,1.25-3.11,2.21-5.66.73-1.95,1.22-3.14,1.22-3.92,0-1.48-1.39-1.28-1.39-1.95,0-.35.29-.46.76-.46h3.8c.58,0,.81.12.81.44,0,.35-.23.41-.58.64ZM89.66,14.02c0,4.35-2.9,7.98-7.14,7.98s-7.2-3.05-7.2-7.81c0-4.35,2.93-7.98,7.2-7.98,4.64,0,7.14,3.48,7.14,7.81ZM84.2,7.93c-.58-.32-1.25-.55-1.97-.55-.81,0-1.57.23-2.24.64-1.39.9-2.32,2.61-2.32,5.14,0,3.95,1.95,7.64,5.14,7.64,1.45,0,2.61-.7,3.4-1.8.73-1.05,1.13-2.5,1.13-4.09,0-2.87-1.05-5.81-3.14-6.97ZM107.05,21.19c0,.38-.35.49-.73.49h-4.3c-.38,0-.7-.12-.7-.49,0-.2.12-.38.43-.52.26-.12.64-.32.84-.67.26-.44.46-1.1.46-3.11v-4.94c0-2.5-1.16-3.89-3.37-3.89-.93,0-1.92.32-2.64,1.05-1.16,1.16-1.39,2.76-1.39,7.78,0,2,.2,2.67.46,3.11.2.35.61.55.84.67.32.15.44.32.44.52,0,.38-.29.49-.7.49h-4.27c-.35,0-.7-.12-.7-.49,0-.2.12-.38.44-.52.26-.12.67-.32.87-.67.26-.44.46-1.1.46-3.11v-5.69c0-1.42,0-2.12-.35-2.55-.2-.26-.49-.35-.93-.46-.32-.09-.61-.17-.61-.52,0-.29.12-.46.73-.61.9-.2,1.57-.44,2.24-.73.2-.09.35-.12.49-.12.41,0,.58.29.58.67v1.89c0,.06,0,.15.06.15s.09-.06.15-.15c.84-1.25,2.38-2.55,4.7-2.55,1.51,0,2.7.55,3.51,1.45,1.05,1.13,1.22,2.85,1.22,4.24v4.99c0,2,.17,2.67.43,3.11.2.35.58.55.84.67.32.15.47.32.47.52ZM14.31,31.47c-.33,0-.58-.09-.82-.73-.43-1.03-.55-1.88-1.58-2.61-1.03-.7-2.98-.76-5.5-.76h-1.7c-.43,0-.58.18-.58.55v8.11c0,.46.12.61.64.61.76,0,1.82,0,3.1-.06,1.43-.06,2.64-.21,3.52-.21.55,0,.88.09.88.52,0,.18-.06.33-.09.46-.21.85-.36.91-1.4.91-.79,0-2.04-.12-3.19-.15-1.15-.03-2.46-.03-3.1-.03-.27.03-.36.12-.36.36v4.5c0,2.13.15,2.64.39,3.07.21.3.49.58.91.79.21.15.49.27.49.55,0,.36-.33.49-.85.49H.85c-.52,0-.85-.12-.85-.49,0-.27.27-.39.52-.55.4-.21.67-.49.88-.79.27-.43.39-.94.39-3.07v-12.7c0-1.97-.03-2.43-.82-2.86-.33-.21-.82-.3-.82-.73,0-.33.27-.52.76-.52h7.81c2.92,0,4.25-.24,5.01-.24.55,0,1.03.21,1.06.82.06.91.09,2.73.15,3.83,0,.7-.24.94-.64.94ZM32.39,47.27c-1.12.24-1.52.39-2.25.73-.24.12-.49.18-.64.18-.46,0-.61-.33-.61-.76v-1.98c0-.06-.03-.09-.06-.09s-.06,0-.12.09c-.97,1.52-2.73,2.7-4.95,2.7-1.52,0-2.8-.46-3.68-1.52-.88-1.06-1.18-2.46-1.18-4.47v-5.89c0-1.09-.03-1.67-.33-2.07-.21-.27-.55-.36-.97-.49-.33-.09-.64-.21-.64-.55,0-.3.12-.55.73-.67,1.03-.21,1.49-.4,2.31-.73.24-.09.46-.12.58-.12.46,0,.61.33.61.73v9.81c0,2.28.94,4.07,3.4,4.07,1,0,2.07-.36,2.8-1.09,1.18-1.19,1.52-2.95,1.52-8.14,0-1.46,0-2.37-.33-2.83-.21-.27-.55-.36-.97-.49-.3-.09-.64-.21-.64-.58,0-.3.15-.52.73-.64,1.03-.21,1.55-.43,2.31-.73.24-.09.4-.12.55-.12.46,0,.64.3.64.73v11.15c0,1.09.03,1.67.33,2.07.21.27.61.4.97.49.33.09.64.21.64.55,0,.27-.09.49-.73.64ZM45.64,45.2c0,.21-.12.46-.24.67-.64,1.03-2.07,2.28-4.16,2.28-1.64,0-2.67-.85-3.16-1.67-.55-.94-.67-2.16-.67-3.49,0-2.55.18-5.44.18-8.69,0-.21-.09-.33-.3-.33h-1.88c-.24,0-.33-.09-.33-.3v-.85c0-.15.06-.24.24-.3,1.03-.33,1.61-.67,1.97-1.09.49-.58.58-1.34.88-2.8.03-.18.12-.3.33-.3h1c.21,0,.3.12.3.3v3.25c0,.46.15.61.67.61.43,0,.85,0,1.61-.03.79-.03,1.73-.15,2.37-.15.43,0,.85.03.85.49,0,.18-.06.27-.09.46-.15.73-.46.88-1.28.88-.55,0-1.28-.09-2.1-.12-.67-.03-1.09-.03-1.67-.03-.24,0-.36.15-.36.4-.03.52-.06,3.25-.06,5.32,0,2.34.06,4.04.43,5.01.39,1.06,1.22,1.43,2.04,1.43,1.67,0,2.4-1.34,2.95-1.34.4,0,.49.3.49.43ZM63.72,47.27c-1.12.24-1.52.39-2.25.73-.24.12-.49.18-.64.18-.46,0-.61-.33-.61-.76v-1.98c0-.06-.03-.09-.06-.09s-.06,0-.12.09c-.97,1.52-2.73,2.7-4.95,2.7-1.52,0-2.8-.46-3.68-1.52-.88-1.06-1.18-2.46-1.18-4.47v-5.89c0-1.09-.03-1.67-.33-2.07-.21-.27-.55-.36-.97-.49-.33-.09-.64-.21-.64-.55,0-.3.12-.55.73-.67,1.03-.21,1.49-.4,2.31-.73.24-.09.46-.12.58-.12.46,0,.61.33.61.73v9.81c0,2.28.94,4.07,3.4,4.07,1,0,2.07-.36,2.8-1.09,1.19-1.19,1.52-2.95,1.52-8.14,0-1.46,0-2.37-.33-2.83-.21-.27-.55-.36-.97-.49-.3-.09-.64-.21-.64-.58,0-.3.15-.52.73-.64,1.03-.21,1.55-.43,2.31-.73.24-.09.4-.12.55-.12.46,0,.64.3.64.73v11.15c0,1.09.03,1.67.33,2.07.21.27.61.4.97.49.33.09.64.21.64.55,0,.27-.09.49-.73.64ZM77.47,33.38c0,.61-.21,1.22-.85,1.22-.76,0-.97-.64-1.88-.64-.64,0-1.4.33-2.04,1.37-.85,1.4-1,3.01-1,7.5,0,2.1.21,2.8.46,3.22.21.36.67.58.88.7.36.18.46.36.46.58,0,.36-.3.49-.7.49h-4.5c-.36,0-.7-.12-.7-.49,0-.21.12-.39.46-.58.3-.15.7-.36.94-.82.24-.46.43-1,.43-3.1s-.03-5.74-.03-6.02c0-1.46-.09-2.22-.43-2.58-.27-.3-.52-.36-.94-.52-.27-.09-.67-.24-.67-.58s.12-.52.76-.67c.85-.18,1.22-.3,2.01-.64.33-.15.52-.18.7-.18.46,0,.61.27.61.73v2.46c0,.06.03.09.06.09s.06-.06.09-.12c.58-1.12,2.28-3.19,4.16-3.19,1.34,0,1.73.97,1.73,1.76ZM92.18,44.53c0,.64-.91,1.61-2.13,2.43-1.15.76-2.61,1.19-4.07,1.19-4.07,0-7.2-3.13-7.2-7.84,0-4.47,3.04-8.69,7.69-8.69,1.73,0,3.28.64,4.34,1.67.97.97,1.7,2.37,1.7,3.83,0,1.55-.58,2.19-2.34,2.19h-8.6c-.21,0-.33.06-.33.3,0,1.55.27,3.22,1.18,4.53.91,1.34,2.25,2.34,4.1,2.34,1.12,0,2.13-.36,2.8-.76,1.34-.79,1.7-1.79,2.28-1.79.33,0,.58.27.58.61ZM81.73,38.09h5.44c1.85,0,2.8-.36,2.8-1.94s-1.31-3.31-3.74-3.31c-3.37,0-4.77,3.68-4.77,4.98,0,.21.09.27.27.27ZM97.47,44.47c1.12,1.76,2.58,2.4,3.95,2.4,1.73,0,3.31-1.06,3.31-2.86,0-2.16-2.25-2.83-4.47-3.46-2.16-.64-4.41-1.7-4.41-4.28,0-2.98,2.86-4.65,5.96-4.65,1.4,0,2.76.39,3.37.88.64.52.85,1.43.85,2.34,0,1.03-.21,1.64-.82,1.64-.3,0-.49-.15-.7-.52-.55-.91-1.34-3.01-3.77-3.01-1.55,0-2.73,1.06-2.73,2.52,0,2.16,2.22,2.52,4.04,3.1,2.4.76,4.77,1.73,4.77,4.62,0,1.49-.79,3.07-2.37,4.01-1.15.67-2.46.94-3.71.94-2.1,0-4.04-.73-4.77-1.52-.52-.61-.79-1.73-.79-2.89,0-.61.12-1.15.67-1.15.58,0,.73.49,1.61,1.88Z"/>
</svg>