<?xml version="1.0" encoding="UTF-8"?>
<svg id="Layer_1" data-name="Layer 1" xmlns="http://www.w3.org/2000/svg" xmlns:xlink="http://www.w3.org/1999/xlink" viewBox="0 0 500 234.67">
  <defs>
    <style>
      .cls-1 {
        fill: none;
      }

      .cls-2 {
        fill: #fff;
      }

      .cls-3 {
        clip-path: url(#clippath);
      }
    </style>
    <clipPath id="clippath">
      <rect class="cls-1" width="500" height="234.67"/>
    </clipPath>
  </defs>
  <g class="cls-3">
    <g>
      <path class="cls-2" d="M97.9,136.56c0,7.78-1.04,14.67-3.13,20.67-2.07,5.99-5.09,11.05-9.06,15.19-3.97,4.13-8.75,7.24-14.33,9.35-5.57,2.11-11.85,3.17-18.83,3.17-6.56,0-12.57-1.06-18.04-3.17-5.46-2.11-10.2-5.23-14.23-9.35-4.03-4.14-7.14-9.2-9.33-15.19-2.18-6-3.27-12.89-3.27-20.67,0-10.32,1.82-19.05,5.48-26.21,3.67-7.17,8.88-12.61,15.65-16.33,6.78-3.72,14.86-5.58,24.25-5.58,8.71,0,16.43,1.86,23.17,5.58,6.75,3.72,12.05,9.17,15.9,16.33,3.86,7.16,5.79,15.89,5.79,26.21ZM33.54,136.56c0,6.11.67,11.25,2,15.42,1.33,4.16,3.42,7.29,6.25,9.4,2.83,2.11,6.53,3.17,11.08,3.17s8.13-1.05,10.94-3.17c2.8-2.11,4.86-5.24,6.17-9.4,1.3-4.17,1.96-9.3,1.96-15.42s-.66-11.27-1.96-15.35c-1.31-4.08-3.38-7.15-6.21-9.21-2.83-2.05-6.52-3.08-11.06-3.08-6.72,0-11.6,2.31-14.63,6.92-3.03,4.61-4.54,11.52-4.54,20.73Z"/>
      <path class="cls-2" d="M204.29,90.18v93.08h-19.48l-3.42-11.9h-1.31c-2,3.16-4.5,5.73-7.5,7.73s-6.31,3.47-9.92,4.42c-3.6.94-7.34,1.42-11.23,1.42-6.67,0-12.47-1.18-17.42-3.54-4.93-2.36-8.77-6.03-11.52-11.02-2.75-5-4.13-11.49-4.13-19.48v-60.71h25.4v54.38c0,6.66,1.19,11.68,3.58,15.06,2.39,3.39,6.19,5.08,11.42,5.08s9.2-1.18,12.15-3.54c2.94-2.36,5.01-5.82,6.21-10.4,1.19-4.58,1.79-10.18,1.79-16.79v-43.79h25.38Z"/>
      <path class="cls-2" d="M258.16,224.22c-12.99,0-22.91-2.27-29.77-6.79-6.85-4.52-10.27-10.85-10.27-19.02,0-5.6,1.74-10.29,5.23-14.06,3.5-3.78,8.64-6.47,15.42-8.08-2.61-1.11-4.89-2.92-6.83-5.44-1.95-2.53-2.92-5.21-2.92-8.04,0-3.55,1.03-6.51,3.08-8.85,2.05-2.36,5.03-4.68,8.92-6.96-4.89-2.11-8.77-5.49-11.63-10.15-2.85-4.67-4.27-10.17-4.27-16.5,0-6.78,1.48-12.53,4.44-17.27,2.97-4.75,7.3-8.38,12.98-10.88,5.69-2.5,12.63-3.75,20.79-3.75,1.72,0,3.71.11,5.98.33,2.28.22,4.38.47,6.29.75,1.92.28,3.21.5,3.88.67h32.48v12.92l-14.58,3.75c1.33,2.04,2.33,4.23,3,6.56s1,4.81,1,7.42c0,9.99-3.49,17.77-10.46,23.35-6.96,5.57-16.63,8.35-29,8.35-2.95-.17-5.72-.39-8.33-.67-1.28,1-2.25,2.06-2.92,3.17-.67,1.11-1,2.28-1,3.5s.51,2.24,1.54,3.04c1.03.81,2.58,1.42,4.67,1.83s4.68.63,7.79.63h15.81c10.21,0,17.99,2.2,23.35,6.58,5.36,4.38,8.04,10.81,8.04,19.31,0,10.88-4.54,19.3-13.63,25.29-9.07,6-22.1,9-39.08,9ZM259.24,207.66c6.05,0,11.26-.57,15.6-1.71,4.36-1.14,7.71-2.75,10.04-4.83s3.5-4.56,3.5-7.44c0-2.33-.68-4.18-2.04-5.54-1.36-1.36-3.42-2.32-6.17-2.88-2.75-.56-6.26-.83-10.52-.83h-13.17c-3.11,0-5.91.5-8.38,1.5-2.46,1-4.41,2.4-5.85,4.21-1.45,1.8-2.17,3.9-2.17,6.27,0,3.5,1.67,6.25,5.02,8.25,3.36,2,8.07,3,14.13,3ZM263.32,137.06c4.78,0,8.27-1.46,10.48-4.4,2.22-2.94,3.33-6.94,3.33-12,0-5.61-1.16-9.81-3.46-12.6-2.29-2.8-5.74-4.21-10.35-4.21s-8.17,1.41-10.5,4.21c-2.32,2.79-3.48,6.99-3.48,12.6,0,5.06,1.15,9.06,3.44,12,2.3,2.93,5.82,4.4,10.54,4.4Z"/>
      <path class="cls-2" d="M352.64,53.72v26.4c0,4.61-.16,9-.46,13.17-.31,4.16-.54,7.09-.71,8.81h1.33c2-3.22,4.38-5.83,7.13-7.83s5.78-3.47,9.1-4.42c3.33-.94,6.92-1.42,10.75-1.42,6.71,0,12.56,1.18,17.56,3.54,5,2.36,8.88,6.06,11.65,11.08,2.78,5.02,4.17,11.52,4.17,19.52v60.69h-25.38v-54.35c0-6.67-1.22-11.69-3.67-15.08-2.45-3.39-6.22-5.08-11.33-5.08s-9.12,1.18-12.06,3.54c-2.95,2.36-5.03,5.83-6.25,10.42-1.22,4.58-1.83,10.18-1.83,16.77v43.79h-25.4V53.72h25.4Z"/>
      <path class="cls-2" d="M478.53,164.7c2.76,0,5.46-.28,8.1-.83,2.64-.55,5.26-1.25,7.88-2.08v18.9c-2.72,1.22-6.1,2.24-10.13,3.04-4.02.8-8.41,1.21-13.19,1.21-5.56,0-10.54-.91-14.96-2.71-4.41-1.8-7.87-4.94-10.4-9.4-2.53-4.47-3.79-10.71-3.79-18.71v-44.88h-12.15v-10.73l13.98-8.5,7.33-19.65h16.23v19.81h26.06v19.06h-26.06v44.88c0,3.56,1.01,6.21,3.04,7.96,2.03,1.75,4.71,2.63,8.04,2.63Z"/>
    </g>
  </g>
</svg>